<?xml version="1.0" standalone="no"?>
<!DOCTYPE svg PUBLIC "-//W3C//DTD SVG 20010904//EN"
 "http://www.w3.org/TR/2001/REC-SVG-20010904/DTD/svg10.dtd">
<svg version="1.0" xmlns="http://www.w3.org/2000/svg"
 width="1280.000000pt" height="866.000000pt" viewBox="0 0 1280.000000 866.000000"
 preserveAspectRatio="xMidYMid meet">
<metadata>
Created by potrace 1.15, written by Peter Selinger 2001-2017
</metadata>
<g transform="translate(0.000000,866.000000) scale(0.100000,-0.100000)"
fill="#000000" stroke="none">
<path d="M10456 8648 c-3 -7 -7 -25 -10 -39 -9 -43 -94 -124 -171 -162 -44
-22 -86 -53 -112 -82 l-43 -48 -67 7 c-246 24 -269 20 -320 -55 l-29 -44 -115
0 c-93 0 -120 -3 -142 -18 -24 -16 -26 -21 -21 -65 3 -26 12 -73 21 -105 31
-108 1 -116 -188 -53 -204 67 -196 67 -251 7 -25 -28 -54 -51 -64 -50 -11 0
-50 8 -89 18 -75 20 -105 15 -105 -18 0 -9 12 -28 26 -42 63 -58 254 -289 254
-307 0 -27 -18 -32 -113 -32 -74 0 -88 -3 -162 -39 -98 -49 -122 -73 -173
-181 -24 -51 -67 -117 -108 -165 -37 -44 -114 -152 -172 -240 -246 -371 -533
-572 -902 -630 -58 -9 -157 -25 -220 -36 -435 -74 -655 -94 -960 -86 -211 6
-351 21 -471 52 -68 18 -86 12 -91 -33 -4 -35 -39 -52 -105 -52 -80 0 -288 19
-502 46 -600 75 -1081 -30 -1561 -342 -225 -146 -351 -206 -519 -245 -48 -11
-153 -42 -236 -69 -82 -27 -235 -74 -338 -105 -103 -30 -232 -71 -285 -91
-132 -50 -346 -153 -407 -196 -27 -19 -88 -57 -135 -83 -47 -26 -101 -62 -120
-80 -19 -19 -82 -56 -140 -83 -96 -45 -112 -56 -191 -139 -88 -93 -197 -249
-288 -412 -92 -164 -230 -460 -251 -539 -32 -117 -40 -131 -106 -204 -111
-120 -248 -306 -307 -416 -32 -59 -75 -132 -96 -162 -41 -60 -71 -136 -71
-184 0 -50 38 -113 106 -175 108 -99 161 -111 241 -57 20 14 79 40 131 57 51
17 114 42 140 57 64 34 231 206 322 332 41 56 110 151 153 209 43 58 82 123
88 143 8 31 29 53 132 134 150 119 399 368 490 489 38 50 97 150 134 224 36
73 85 159 108 190 24 31 148 160 276 287 183 180 257 246 339 301 134 90 180
113 241 120 l49 6 0 -31 c0 -16 -10 -83 -21 -149 -29 -159 -31 -389 -5 -483
89 -321 181 -463 441 -679 194 -162 414 -291 494 -291 25 0 222 -132 277 -185
45 -43 64 -91 64 -160 0 -83 -22 -209 -56 -323 -19 -64 -57 -204 -84 -309 -27
-106 -78 -282 -114 -390 -76 -232 -101 -352 -85 -420 13 -62 36 -98 79 -127
50 -34 242 -93 330 -101 41 -4 104 -13 140 -21 36 -9 121 -26 190 -39 280 -53
326 -68 542 -174 287 -141 549 -311 706 -456 103 -96 108 -109 92 -231 -8 -69
-9 -99 -1 -108 23 -27 160 -74 279 -96 138 -26 167 -21 178 27 10 50 13 53 42
53 67 0 134 -30 186 -85 28 -28 61 -55 72 -59 12 -4 49 -48 85 -102 34 -52 71
-100 81 -105 11 -6 28 -30 38 -55 11 -24 25 -44 32 -44 7 0 54 -3 103 -7 175
-14 244 -9 308 20 31 14 57 32 57 40 0 19 -82 110 -142 158 -26 20 -71 45
-100 55 -41 13 -73 36 -141 100 -48 46 -92 84 -97 84 -5 0 -19 18 -30 40 -11
22 -25 40 -30 40 -5 0 -70 58 -143 130 -74 71 -159 144 -190 162 -100 59 -297
199 -312 221 -8 13 -26 66 -39 118 -13 53 -33 114 -45 136 -31 61 -102 118
-190 152 -73 28 -254 72 -354 87 -40 5 -61 17 -118 66 -158 136 -243 313 -225
463 18 142 152 531 284 825 139 310 215 469 253 526 49 75 58 135 35 213 -19
66 -9 120 29 145 66 44 199 56 326 32 41 -8 95 -17 121 -21 27 -3 97 -30 160
-62 163 -79 242 -109 412 -153 397 -104 574 -127 832 -111 368 23 429 -5 829
-376 77 -71 217 -210 310 -308 94 -98 205 -212 248 -254 44 -41 102 -105 130
-141 28 -36 77 -95 109 -133 97 -114 120 -178 98 -282 -11 -51 -20 -66 -67
-112 -46 -46 -89 -71 -281 -164 -125 -60 -256 -125 -292 -144 -36 -18 -115
-47 -175 -64 -156 -42 -395 -127 -425 -151 -52 -41 -103 -61 -169 -67 -83 -7
-121 5 -192 58 -51 38 -129 69 -174 69 -29 0 -97 -46 -178 -120 -59 -54 -127
-141 -127 -161 0 -35 181 -105 293 -115 52 -5 86 1 217 36 l155 42 195 -6
c107 -4 224 -9 259 -12 39 -4 81 -1 105 6 22 7 105 56 186 109 143 95 313 189
420 231 30 12 64 30 75 40 33 29 76 47 150 60 39 7 90 21 115 32 25 11 74 31
110 43 36 13 94 36 129 50 78 33 88 27 71 -44 -8 -36 -30 -74 -72 -128 -33
-43 -78 -106 -100 -140 -56 -89 -142 -164 -249 -217 -50 -25 -102 -46 -115
-46 -14 0 -48 12 -77 27 -66 34 -193 45 -231 20 -38 -25 -90 -200 -89 -299 0
-47 5 -84 13 -93 17 -20 75 -19 186 4 102 21 153 44 239 108 33 25 86 58 118
75 69 35 323 140 421 174 39 13 81 34 94 47 47 42 93 128 128 235 19 59 50
131 70 161 20 29 56 103 80 165 25 61 77 172 116 246 40 74 109 207 154 295
45 88 92 178 104 200 31 58 22 118 -41 249 -40 83 -52 120 -55 167 -5 87 -21
104 -163 183 -126 70 -202 128 -341 260 -69 67 -206 197 -303 289 -134 127
-177 174 -177 193 0 15 17 41 48 72 95 96 182 200 196 233 8 19 17 68 21 109
4 41 17 143 30 225 14 83 29 197 35 255 18 170 49 316 96 455 25 72 69 202 98
290 29 88 65 184 81 214 15 30 65 140 111 245 58 130 95 201 117 222 19 19 55
82 86 150 74 160 109 222 137 241 46 30 271 18 654 -34 308 -42 357 -53 398
-91 31 -29 184 -122 201 -122 5 0 23 -11 39 -25 18 -15 49 -28 76 -31 56 -8
78 -32 103 -112 23 -72 73 -126 133 -142 61 -17 211 -8 245 14 13 9 27 27 31
40 9 35 29 39 63 11 38 -33 59 -31 117 8 82 55 105 93 115 187 4 45 15 104 25
132 14 43 15 61 5 122 -22 135 -56 185 -230 334 -94 81 -231 240 -257 298 -16
38 -33 57 -64 76 -44 25 -215 233 -333 402 -193 277 -342 457 -422 509 -259
167 -249 158 -265 212 -10 35 -29 65 -65 101 -59 60 -123 87 -241 103 -65 9
-88 18 -132 49 -83 59 -142 90 -211 112 -73 23 -110 25 -115 8z m524 -2048
c80 -8 154 -21 205 -38 93 -29 86 -40 -12 -19 -38 9 -131 18 -208 22 -180 7
-255 15 -255 25 0 16 55 29 100 25 25 -2 101 -9 170 -15z m-1377 -3581 c45
-23 129 -68 187 -100 58 -32 129 -63 158 -70 63 -13 103 -49 153 -136 18 -32
55 -91 81 -132 28 -43 48 -85 48 -102 0 -45 -47 -206 -72 -248 -13 -22 -42
-66 -65 -98 -23 -33 -71 -117 -108 -187 -37 -70 -72 -125 -79 -123 -12 4 -13
150 -2 297 8 95 5 101 -81 212 -95 122 -363 621 -363 676 0 63 33 66 143 11z"/>
</g>
</svg>
